<mxfile host="app.diagrams.net" modified="2023-10-14T10:35:27.470Z" agent="Mozilla/5.0 (Windows NT 10.0; Win64; x64) AppleWebKit/537.36 (KHTML, like Gecko) Chrome/117.0.0.0 Safari/537.36" etag="0tQQTYzkCGLIIP7P_EPS" version="22.0.4" type="github">
  <diagram name="Seite-1" id="FmIIdibaUiO8U-ZjWJW1">
    <mxGraphModel dx="1434" dy="782" grid="1" gridSize="10" guides="1" tooltips="1" connect="1" arrows="1" fold="1" page="1" pageScale="1" pageWidth="1169" pageHeight="827" math="0" shadow="0">
      <root>
        <mxCell id="0" />
        <mxCell id="1" parent="0" />
        <mxCell id="9bT87pyTpixYOUSoGnTv-71" value="Personen" style="rounded=1;whiteSpace=wrap;html=1;" parent="1" vertex="1">
          <mxGeometry x="609" y="154" width="120" height="40" as="geometry" />
        </mxCell>
        <mxCell id="9bT87pyTpixYOUSoGnTv-87" style="edgeStyle=orthogonalEdgeStyle;rounded=0;orthogonalLoop=1;jettySize=auto;html=1;exitX=1;exitY=0.5;exitDx=0;exitDy=0;entryX=0;entryY=0.5;entryDx=0;entryDy=0;dashed=1;dashPattern=8 8;strokeWidth=1;endArrow=block;endFill=0;" parent="1" source="9bT87pyTpixYOUSoGnTv-72" target="9bT87pyTpixYOUSoGnTv-71" edge="1">
          <mxGeometry relative="1" as="geometry" />
        </mxCell>
        <mxCell id="9bT87pyTpixYOUSoGnTv-88" value="Kunde sein" style="edgeLabel;html=1;align=center;verticalAlign=middle;resizable=0;points=[];" parent="9bT87pyTpixYOUSoGnTv-87" vertex="1" connectable="0">
          <mxGeometry x="-0.15" relative="1" as="geometry">
            <mxPoint x="2" y="-1" as="offset" />
          </mxGeometry>
        </mxCell>
        <mxCell id="9bT87pyTpixYOUSoGnTv-107" style="edgeStyle=orthogonalEdgeStyle;rounded=0;orthogonalLoop=1;jettySize=auto;html=1;exitX=0;exitY=0.5;exitDx=0;exitDy=0;entryX=1;entryY=0.5;entryDx=0;entryDy=0;" parent="1" source="9bT87pyTpixYOUSoGnTv-72" target="9bT87pyTpixYOUSoGnTv-106" edge="1">
          <mxGeometry relative="1" as="geometry" />
        </mxCell>
        <mxCell id="9bT87pyTpixYOUSoGnTv-108" value="besitzt" style="edgeLabel;html=1;align=center;verticalAlign=middle;resizable=0;points=[];" parent="9bT87pyTpixYOUSoGnTv-107" vertex="1" connectable="0">
          <mxGeometry x="0.0886" y="2" relative="1" as="geometry">
            <mxPoint x="4" y="-3" as="offset" />
          </mxGeometry>
        </mxCell>
        <mxCell id="9bT87pyTpixYOUSoGnTv-127" style="edgeStyle=orthogonalEdgeStyle;rounded=0;orthogonalLoop=1;jettySize=auto;html=1;exitX=0.25;exitY=1;exitDx=0;exitDy=0;entryX=0;entryY=0.5;entryDx=0;entryDy=0;" parent="1" source="9bT87pyTpixYOUSoGnTv-72" target="9bT87pyTpixYOUSoGnTv-83" edge="1">
          <mxGeometry relative="1" as="geometry">
            <Array as="points">
              <mxPoint x="439" y="244" />
              <mxPoint x="390" y="244" />
              <mxPoint x="390" y="654" />
            </Array>
          </mxGeometry>
        </mxCell>
        <mxCell id="9bT87pyTpixYOUSoGnTv-128" value="bestellt" style="edgeLabel;html=1;align=center;verticalAlign=middle;resizable=0;points=[];" parent="9bT87pyTpixYOUSoGnTv-127" vertex="1" connectable="0">
          <mxGeometry x="0.6456" y="-1" relative="1" as="geometry">
            <mxPoint y="-2" as="offset" />
          </mxGeometry>
        </mxCell>
        <mxCell id="9bT87pyTpixYOUSoGnTv-72" value="Kunden" style="rounded=1;whiteSpace=wrap;html=1;" parent="1" vertex="1">
          <mxGeometry x="409" y="154" width="120" height="40" as="geometry" />
        </mxCell>
        <mxCell id="9bT87pyTpixYOUSoGnTv-96" style="rounded=0;orthogonalLoop=1;jettySize=auto;html=1;exitX=0.25;exitY=0;exitDx=0;exitDy=0;entryX=1;entryY=1;entryDx=0;entryDy=0;dashed=1;dashPattern=8 8;strokeWidth=1;endArrow=block;endFill=0;" parent="1" source="9bT87pyTpixYOUSoGnTv-73" target="9bT87pyTpixYOUSoGnTv-75" edge="1">
          <mxGeometry relative="1" as="geometry" />
        </mxCell>
        <mxCell id="9bT87pyTpixYOUSoGnTv-98" value="Manager sein" style="edgeLabel;html=1;align=center;verticalAlign=middle;resizable=0;points=[];" parent="9bT87pyTpixYOUSoGnTv-96" vertex="1" connectable="0">
          <mxGeometry x="-0.0086" y="1" relative="1" as="geometry">
            <mxPoint as="offset" />
          </mxGeometry>
        </mxCell>
        <mxCell id="9bT87pyTpixYOUSoGnTv-123" style="edgeStyle=orthogonalEdgeStyle;rounded=0;orthogonalLoop=1;jettySize=auto;html=1;exitX=0.5;exitY=0;exitDx=0;exitDy=0;entryX=0.5;entryY=1;entryDx=0;entryDy=0;" parent="1" source="9bT87pyTpixYOUSoGnTv-73" target="9bT87pyTpixYOUSoGnTv-81" edge="1">
          <mxGeometry relative="1" as="geometry" />
        </mxCell>
        <mxCell id="9bT87pyTpixYOUSoGnTv-124" value="engagiert" style="edgeLabel;html=1;align=center;verticalAlign=middle;resizable=0;points=[];" parent="9bT87pyTpixYOUSoGnTv-123" vertex="1" connectable="0">
          <mxGeometry x="-0.025" y="1" relative="1" as="geometry">
            <mxPoint as="offset" />
          </mxGeometry>
        </mxCell>
        <mxCell id="OsaElyGvxkWUC4z2PvJN-4" style="edgeStyle=orthogonalEdgeStyle;rounded=0;orthogonalLoop=1;jettySize=auto;html=1;exitX=0.5;exitY=1;exitDx=0;exitDy=0;entryX=0.5;entryY=0;entryDx=0;entryDy=0;" parent="1" source="9bT87pyTpixYOUSoGnTv-73" target="OsaElyGvxkWUC4z2PvJN-1" edge="1">
          <mxGeometry relative="1" as="geometry" />
        </mxCell>
        <mxCell id="OsaElyGvxkWUC4z2PvJN-5" value="plant" style="edgeLabel;html=1;align=center;verticalAlign=middle;resizable=0;points=[];" parent="OsaElyGvxkWUC4z2PvJN-4" vertex="1" connectable="0">
          <mxGeometry x="-0.1" y="-1" relative="1" as="geometry">
            <mxPoint as="offset" />
          </mxGeometry>
        </mxCell>
        <mxCell id="9bT87pyTpixYOUSoGnTv-73" value="Manager" style="rounded=1;whiteSpace=wrap;html=1;" parent="1" vertex="1">
          <mxGeometry x="809" y="394" width="120" height="40" as="geometry" />
        </mxCell>
        <mxCell id="9bT87pyTpixYOUSoGnTv-90" style="edgeStyle=orthogonalEdgeStyle;rounded=0;orthogonalLoop=1;jettySize=auto;html=1;exitX=0.5;exitY=0;exitDx=0;exitDy=0;entryX=0.5;entryY=1;entryDx=0;entryDy=0;dashed=1;dashPattern=8 8;strokeWidth=1;endArrow=block;endFill=0;" parent="1" source="9bT87pyTpixYOUSoGnTv-74" target="9bT87pyTpixYOUSoGnTv-75" edge="1">
          <mxGeometry relative="1" as="geometry">
            <Array as="points">
              <mxPoint x="669" y="354" />
              <mxPoint x="669" y="354" />
            </Array>
          </mxGeometry>
        </mxCell>
        <mxCell id="9bT87pyTpixYOUSoGnTv-91" value="Security sein" style="edgeLabel;html=1;align=center;verticalAlign=middle;resizable=0;points=[];" parent="9bT87pyTpixYOUSoGnTv-90" vertex="1" connectable="0">
          <mxGeometry x="0.075" y="-2" relative="1" as="geometry">
            <mxPoint x="-4" y="2" as="offset" />
          </mxGeometry>
        </mxCell>
        <mxCell id="9bT87pyTpixYOUSoGnTv-102" style="edgeStyle=orthogonalEdgeStyle;rounded=0;orthogonalLoop=1;jettySize=auto;html=1;exitX=0.25;exitY=0;exitDx=0;exitDy=0;entryX=0.75;entryY=1;entryDx=0;entryDy=0;" parent="1" source="9bT87pyTpixYOUSoGnTv-74" target="9bT87pyTpixYOUSoGnTv-72" edge="1">
          <mxGeometry relative="1" as="geometry">
            <Array as="points">
              <mxPoint x="639" y="374" />
              <mxPoint x="499" y="374" />
            </Array>
          </mxGeometry>
        </mxCell>
        <mxCell id="9bT87pyTpixYOUSoGnTv-103" value="kontrolliert" style="edgeLabel;html=1;align=center;verticalAlign=middle;resizable=0;points=[];" parent="9bT87pyTpixYOUSoGnTv-102" vertex="1" connectable="0">
          <mxGeometry x="0.6294" y="-1" relative="1" as="geometry">
            <mxPoint y="-7" as="offset" />
          </mxGeometry>
        </mxCell>
        <mxCell id="9bT87pyTpixYOUSoGnTv-74" value="Securities" style="rounded=1;whiteSpace=wrap;html=1;" parent="1" vertex="1">
          <mxGeometry x="609" y="394" width="120" height="40" as="geometry" />
        </mxCell>
        <mxCell id="9bT87pyTpixYOUSoGnTv-85" style="edgeStyle=orthogonalEdgeStyle;rounded=0;orthogonalLoop=1;jettySize=auto;html=1;exitX=0.5;exitY=0;exitDx=0;exitDy=0;entryX=0.5;entryY=1;entryDx=0;entryDy=0;dashed=1;dashPattern=8 8;strokeWidth=1;endArrow=block;endFill=0;" parent="1" source="9bT87pyTpixYOUSoGnTv-75" target="9bT87pyTpixYOUSoGnTv-71" edge="1">
          <mxGeometry relative="1" as="geometry" />
        </mxCell>
        <mxCell id="9bT87pyTpixYOUSoGnTv-86" value="Mitarbeiter sein" style="edgeLabel;html=1;align=center;verticalAlign=middle;resizable=0;points=[];" parent="9bT87pyTpixYOUSoGnTv-85" vertex="1" connectable="0">
          <mxGeometry x="-0.05" y="-1" relative="1" as="geometry">
            <mxPoint as="offset" />
          </mxGeometry>
        </mxCell>
        <mxCell id="9bT87pyTpixYOUSoGnTv-110" style="edgeStyle=orthogonalEdgeStyle;rounded=0;orthogonalLoop=1;jettySize=auto;html=1;exitX=0;exitY=0.5;exitDx=0;exitDy=0;entryX=0.75;entryY=1;entryDx=0;entryDy=0;" parent="1" source="9bT87pyTpixYOUSoGnTv-75" target="9bT87pyTpixYOUSoGnTv-106" edge="1">
          <mxGeometry relative="1" as="geometry">
            <Array as="points">
              <mxPoint x="300" y="294" />
            </Array>
          </mxGeometry>
        </mxCell>
        <mxCell id="9bT87pyTpixYOUSoGnTv-111" value="verteilt" style="edgeLabel;html=1;align=center;verticalAlign=middle;resizable=0;points=[];" parent="9bT87pyTpixYOUSoGnTv-110" vertex="1" connectable="0">
          <mxGeometry x="0.4081" y="1" relative="1" as="geometry">
            <mxPoint x="108" y="-2" as="offset" />
          </mxGeometry>
        </mxCell>
        <mxCell id="9bT87pyTpixYOUSoGnTv-75" value="Mitarbeiter" style="rounded=1;whiteSpace=wrap;html=1;" parent="1" vertex="1">
          <mxGeometry x="609" y="274" width="120" height="40" as="geometry" />
        </mxCell>
        <mxCell id="9bT87pyTpixYOUSoGnTv-114" style="edgeStyle=orthogonalEdgeStyle;rounded=0;orthogonalLoop=1;jettySize=auto;html=1;exitX=0.5;exitY=1;exitDx=0;exitDy=0;entryX=0.5;entryY=0;entryDx=0;entryDy=0;" parent="1" source="9bT87pyTpixYOUSoGnTv-76" target="9bT87pyTpixYOUSoGnTv-83" edge="1">
          <mxGeometry relative="1" as="geometry">
            <Array as="points">
              <mxPoint x="669" y="594" />
              <mxPoint x="669" y="594" />
            </Array>
          </mxGeometry>
        </mxCell>
        <mxCell id="9bT87pyTpixYOUSoGnTv-115" value="enthält" style="edgeLabel;html=1;align=center;verticalAlign=middle;resizable=0;points=[];" parent="9bT87pyTpixYOUSoGnTv-114" vertex="1" connectable="0">
          <mxGeometry x="-0.05" relative="1" as="geometry">
            <mxPoint as="offset" />
          </mxGeometry>
        </mxCell>
        <mxCell id="9bT87pyTpixYOUSoGnTv-76" value="Bars" style="rounded=1;whiteSpace=wrap;html=1;" parent="1" vertex="1">
          <mxGeometry x="609" y="514" width="120" height="40" as="geometry" />
        </mxCell>
        <mxCell id="9bT87pyTpixYOUSoGnTv-77" style="edgeStyle=orthogonalEdgeStyle;rounded=0;orthogonalLoop=1;jettySize=auto;html=1;exitX=0.5;exitY=1;exitDx=0;exitDy=0;" parent="1" source="9bT87pyTpixYOUSoGnTv-73" target="9bT87pyTpixYOUSoGnTv-73" edge="1">
          <mxGeometry relative="1" as="geometry" />
        </mxCell>
        <mxCell id="9bT87pyTpixYOUSoGnTv-118" style="edgeStyle=orthogonalEdgeStyle;rounded=0;orthogonalLoop=1;jettySize=auto;html=1;exitX=0;exitY=0.5;exitDx=0;exitDy=0;entryX=1;entryY=0.5;entryDx=0;entryDy=0;" parent="1" source="9bT87pyTpixYOUSoGnTv-79" target="9bT87pyTpixYOUSoGnTv-76" edge="1">
          <mxGeometry relative="1" as="geometry" />
        </mxCell>
        <mxCell id="9bT87pyTpixYOUSoGnTv-119" value="enthält" style="edgeLabel;html=1;align=center;verticalAlign=middle;resizable=0;points=[];" parent="9bT87pyTpixYOUSoGnTv-118" vertex="1" connectable="0">
          <mxGeometry x="-0.075" y="2" relative="1" as="geometry">
            <mxPoint y="-7" as="offset" />
          </mxGeometry>
        </mxCell>
        <mxCell id="9bT87pyTpixYOUSoGnTv-79" value="Floors" style="rounded=1;whiteSpace=wrap;html=1;" parent="1" vertex="1">
          <mxGeometry x="809" y="634" width="120" height="40" as="geometry" />
        </mxCell>
        <mxCell id="9bT87pyTpixYOUSoGnTv-125" style="edgeStyle=orthogonalEdgeStyle;rounded=0;orthogonalLoop=1;jettySize=auto;html=1;exitX=1;exitY=0.5;exitDx=0;exitDy=0;entryX=1;entryY=0.5;entryDx=0;entryDy=0;" parent="1" source="9bT87pyTpixYOUSoGnTv-81" target="9bT87pyTpixYOUSoGnTv-79" edge="1">
          <mxGeometry relative="1" as="geometry" />
        </mxCell>
        <mxCell id="9bT87pyTpixYOUSoGnTv-126" value="tritt auf" style="edgeLabel;html=1;align=center;verticalAlign=middle;resizable=0;points=[];" parent="9bT87pyTpixYOUSoGnTv-125" vertex="1" connectable="0">
          <mxGeometry x="-0.4357" y="1" relative="1" as="geometry">
            <mxPoint x="-1" y="-33" as="offset" />
          </mxGeometry>
        </mxCell>
        <mxCell id="9bT87pyTpixYOUSoGnTv-81" value="DJs" style="rounded=1;whiteSpace=wrap;html=1;" parent="1" vertex="1">
          <mxGeometry x="809" y="274" width="120" height="40" as="geometry" />
        </mxCell>
        <mxCell id="9bT87pyTpixYOUSoGnTv-94" style="edgeStyle=orthogonalEdgeStyle;rounded=0;orthogonalLoop=1;jettySize=auto;html=1;exitX=0.5;exitY=0;exitDx=0;exitDy=0;entryX=0.5;entryY=1;entryDx=0;entryDy=0;dashed=1;dashPattern=8 8;strokeWidth=1;endArrow=block;endFill=0;" parent="1" source="9bT87pyTpixYOUSoGnTv-82" target="9bT87pyTpixYOUSoGnTv-84" edge="1">
          <mxGeometry relative="1" as="geometry" />
        </mxCell>
        <mxCell id="9bT87pyTpixYOUSoGnTv-95" value="Barchef sein" style="edgeLabel;html=1;align=center;verticalAlign=middle;resizable=0;points=[];" parent="9bT87pyTpixYOUSoGnTv-94" vertex="1" connectable="0">
          <mxGeometry x="-0.025" y="-1" relative="1" as="geometry">
            <mxPoint x="-3" as="offset" />
          </mxGeometry>
        </mxCell>
        <mxCell id="9bT87pyTpixYOUSoGnTv-104" style="edgeStyle=orthogonalEdgeStyle;rounded=0;orthogonalLoop=1;jettySize=auto;html=1;exitX=1;exitY=0.5;exitDx=0;exitDy=0;entryX=0;entryY=0.5;entryDx=0;entryDy=0;" parent="1" source="9bT87pyTpixYOUSoGnTv-82" target="9bT87pyTpixYOUSoGnTv-76" edge="1">
          <mxGeometry relative="1" as="geometry" />
        </mxCell>
        <mxCell id="9bT87pyTpixYOUSoGnTv-105" value="verwaltet" style="edgeLabel;html=1;align=center;verticalAlign=middle;resizable=0;points=[];" parent="9bT87pyTpixYOUSoGnTv-104" vertex="1" connectable="0">
          <mxGeometry x="-0.025" y="1" relative="1" as="geometry">
            <mxPoint as="offset" />
          </mxGeometry>
        </mxCell>
        <mxCell id="9bT87pyTpixYOUSoGnTv-116" style="rounded=0;orthogonalLoop=1;jettySize=auto;html=1;exitX=1;exitY=1;exitDx=0;exitDy=0;entryX=0;entryY=0;entryDx=0;entryDy=0;" parent="1" source="9bT87pyTpixYOUSoGnTv-82" target="9bT87pyTpixYOUSoGnTv-83" edge="1">
          <mxGeometry relative="1" as="geometry" />
        </mxCell>
        <mxCell id="9bT87pyTpixYOUSoGnTv-117" value="überwacht" style="edgeLabel;html=1;align=center;verticalAlign=middle;resizable=0;points=[];" parent="9bT87pyTpixYOUSoGnTv-116" vertex="1" connectable="0">
          <mxGeometry y="-1" relative="1" as="geometry">
            <mxPoint x="-1" y="-2" as="offset" />
          </mxGeometry>
        </mxCell>
        <mxCell id="9bT87pyTpixYOUSoGnTv-82" value="Barchefs" style="rounded=1;whiteSpace=wrap;html=1;" parent="1" vertex="1">
          <mxGeometry x="409" y="514" width="120" height="40" as="geometry" />
        </mxCell>
        <mxCell id="9bT87pyTpixYOUSoGnTv-83" value="Getraenke" style="rounded=1;whiteSpace=wrap;html=1;" parent="1" vertex="1">
          <mxGeometry x="609" y="634" width="120" height="40" as="geometry" />
        </mxCell>
        <mxCell id="9bT87pyTpixYOUSoGnTv-100" style="edgeStyle=orthogonalEdgeStyle;rounded=0;orthogonalLoop=1;jettySize=auto;html=1;exitX=0.5;exitY=0;exitDx=0;exitDy=0;entryX=0.5;entryY=1;entryDx=0;entryDy=0;" parent="1" source="9bT87pyTpixYOUSoGnTv-84" target="9bT87pyTpixYOUSoGnTv-72" edge="1">
          <mxGeometry relative="1" as="geometry" />
        </mxCell>
        <mxCell id="9bT87pyTpixYOUSoGnTv-101" value="bedient" style="edgeLabel;html=1;align=center;verticalAlign=middle;resizable=0;points=[];" parent="9bT87pyTpixYOUSoGnTv-100" vertex="1" connectable="0">
          <mxGeometry x="0.02" y="1" relative="1" as="geometry">
            <mxPoint y="-18" as="offset" />
          </mxGeometry>
        </mxCell>
        <mxCell id="9bT87pyTpixYOUSoGnTv-112" style="edgeStyle=orthogonalEdgeStyle;rounded=0;orthogonalLoop=1;jettySize=auto;html=1;exitX=0;exitY=0.5;exitDx=0;exitDy=0;entryX=0.5;entryY=1;entryDx=0;entryDy=0;" parent="1" source="9bT87pyTpixYOUSoGnTv-84" target="9bT87pyTpixYOUSoGnTv-106" edge="1">
          <mxGeometry relative="1" as="geometry">
            <Array as="points">
              <mxPoint x="270" y="414" />
            </Array>
          </mxGeometry>
        </mxCell>
        <mxCell id="9bT87pyTpixYOUSoGnTv-113" value="liest aus" style="edgeLabel;html=1;align=center;verticalAlign=middle;resizable=0;points=[];" parent="9bT87pyTpixYOUSoGnTv-112" vertex="1" connectable="0">
          <mxGeometry x="-0.5655" relative="1" as="geometry">
            <mxPoint y="-1" as="offset" />
          </mxGeometry>
        </mxCell>
        <mxCell id="9bT87pyTpixYOUSoGnTv-84" value="Bartender" style="rounded=1;whiteSpace=wrap;html=1;" parent="1" vertex="1">
          <mxGeometry x="409" y="394" width="120" height="40" as="geometry" />
        </mxCell>
        <mxCell id="9bT87pyTpixYOUSoGnTv-92" style="rounded=0;orthogonalLoop=1;jettySize=auto;html=1;exitX=0.75;exitY=0;exitDx=0;exitDy=0;entryX=0.25;entryY=1;entryDx=0;entryDy=0;dashed=1;dashPattern=8 8;strokeWidth=1;endArrow=block;endFill=0;" parent="1" source="9bT87pyTpixYOUSoGnTv-84" target="9bT87pyTpixYOUSoGnTv-75" edge="1">
          <mxGeometry relative="1" as="geometry" />
        </mxCell>
        <mxCell id="9bT87pyTpixYOUSoGnTv-93" value="Bartenter sein" style="edgeLabel;html=1;align=center;verticalAlign=middle;resizable=0;points=[];" parent="9bT87pyTpixYOUSoGnTv-92" vertex="1" connectable="0">
          <mxGeometry x="-0.0086" y="-1" relative="1" as="geometry">
            <mxPoint x="1" y="-1" as="offset" />
          </mxGeometry>
        </mxCell>
        <mxCell id="9bT87pyTpixYOUSoGnTv-106" value="Cashless Armband" style="rounded=1;whiteSpace=wrap;html=1;" parent="1" vertex="1">
          <mxGeometry x="210" y="154" width="120" height="40" as="geometry" />
        </mxCell>
        <mxCell id="9bT87pyTpixYOUSoGnTv-121" style="rounded=0;orthogonalLoop=1;jettySize=auto;html=1;exitX=0.25;exitY=0;exitDx=0;exitDy=0;entryX=1;entryY=1;entryDx=0;entryDy=0;dashed=1;dashPattern=8 8;strokeWidth=1;endArrow=block;endFill=0;" parent="1" source="9bT87pyTpixYOUSoGnTv-81" target="9bT87pyTpixYOUSoGnTv-71" edge="1">
          <mxGeometry relative="1" as="geometry">
            <mxPoint x="839" y="274" as="sourcePoint" />
            <mxPoint x="729" y="194" as="targetPoint" />
          </mxGeometry>
        </mxCell>
        <mxCell id="9bT87pyTpixYOUSoGnTv-122" value="DJ sein" style="edgeLabel;html=1;align=center;verticalAlign=middle;resizable=0;points=[];" parent="9bT87pyTpixYOUSoGnTv-121" vertex="1" connectable="0">
          <mxGeometry x="-0.0086" y="1" relative="1" as="geometry">
            <mxPoint x="3" as="offset" />
          </mxGeometry>
        </mxCell>
        <mxCell id="9bT87pyTpixYOUSoGnTv-129" value="" style="endArrow=classic;html=1;rounded=0;entryX=0.25;entryY=0;entryDx=0;entryDy=0;" parent="1" target="9bT87pyTpixYOUSoGnTv-84" edge="1">
          <mxGeometry width="50" height="50" relative="1" as="geometry">
            <mxPoint x="390" y="354" as="sourcePoint" />
            <mxPoint x="870" y="384" as="targetPoint" />
            <Array as="points">
              <mxPoint x="440" y="354" />
            </Array>
          </mxGeometry>
        </mxCell>
        <mxCell id="OsaElyGvxkWUC4z2PvJN-1" value="Events" style="rounded=1;whiteSpace=wrap;html=1;" parent="1" vertex="1">
          <mxGeometry x="809" y="514" width="120" height="40" as="geometry" />
        </mxCell>
        <mxCell id="OsaElyGvxkWUC4z2PvJN-6" value="" style="endArrow=classic;html=1;rounded=0;entryX=1;entryY=0.5;entryDx=0;entryDy=0;" parent="1" target="OsaElyGvxkWUC4z2PvJN-1" edge="1">
          <mxGeometry width="50" height="50" relative="1" as="geometry">
            <mxPoint x="950" y="534" as="sourcePoint" />
            <mxPoint x="780" y="544" as="targetPoint" />
          </mxGeometry>
        </mxCell>
        <mxCell id="OsaElyGvxkWUC4z2PvJN-7" value="" style="shape=waypoint;sketch=0;fillStyle=solid;size=6;pointerEvents=1;points=[];fillColor=none;resizable=0;rotatable=0;perimeter=centerPerimeter;snapToPoint=1;" parent="1" vertex="1">
          <mxGeometry x="939" y="524" width="20" height="20" as="geometry" />
        </mxCell>
        <mxCell id="OsaElyGvxkWUC4z2PvJN-8" value="" style="shape=waypoint;sketch=0;fillStyle=solid;size=6;pointerEvents=1;points=[];fillColor=none;resizable=0;rotatable=0;perimeter=centerPerimeter;snapToPoint=1;" parent="1" vertex="1">
          <mxGeometry x="380" y="344" width="20" height="20" as="geometry" />
        </mxCell>
      </root>
    </mxGraphModel>
  </diagram>
</mxfile>
